<?xml version="1.0" encoding="UTF-8"?>
<svg id="Layer_2" data-name="Layer 2" xmlns="http://www.w3.org/2000/svg" viewBox="0 0 745.72 449.47">
  <defs>
    <style>
      .cls-1 {
        fill: #fff;
        stroke-width: 0px;
      }
    </style>
  </defs>
  <g id="Layer_1-2" data-name="Layer 1">
    <g>
      <g>
        <polygon class="cls-1" points="313.34 192.85 313.34 75.94 241.07 75.94 241.07 373.53 313.34 373.53 313.34 256.62 373.48 256.62 373.48 224.74 313.34 224.74 313.34 192.85"/>
        <polygon class="cls-1" points="432.38 75.94 432.38 192.85 373.48 192.85 373.48 224.74 432.38 224.74 432.38 256.62 432.38 373.53 504.65 373.53 504.65 75.94 432.38 75.94"/>
      </g>
      <g>
        <polygon class="cls-1" points="719.43 207.66 719.43 190.19 693.74 190.19 693.74 155.65 667.45 155.65 667.45 121.1 641.75 121.1 641.75 0 537.79 0 537.79 34.54 589.77 34.54 589.77 138.18 615.46 138.18 615.46 155.65 641.75 155.65 641.75 190.19 667.45 190.19 667.45 259.28 641.75 259.28 641.75 293.82 615.46 293.82 615.46 311.3 589.77 311.3 589.77 414.93 537.79 414.93 537.79 449.47 641.75 449.47 641.75 328.77 667.45 328.77 667.45 294.22 693.74 294.22 693.74 259.28 719.43 259.28 719.43 242.21 745.72 242.21 745.72 207.66 719.43 207.66"/>
        <polygon class="cls-1" points="103.96 120.71 78.27 120.71 78.27 155.25 51.98 155.25 51.98 190.19 26.29 190.19 26.29 207.27 0 207.27 0 241.81 26.29 241.81 26.29 259.28 51.98 259.28 51.98 293.82 78.27 293.82 78.27 328.37 103.96 328.37 103.96 449.47 207.93 449.47 207.93 414.93 155.95 414.93 155.95 311.29 130.25 311.29 130.25 293.82 103.96 293.82 103.96 259.28 78.27 259.28 78.27 190.19 103.96 190.19 103.96 155.65 130.25 155.65 130.25 138.18 155.95 138.18 155.95 34.54 207.93 34.54 207.93 0 103.96 0 103.96 120.71"/>
      </g>
    </g>
  </g>
</svg>