<?xml version="1.0" encoding="UTF-8"?>
<svg id="Layer_2" data-name="Layer 2" xmlns="http://www.w3.org/2000/svg" viewBox="0 0 612.56 217.93">
  <defs>
    <style>
      .cls-1 {
        fill: #fff;
        stroke-width: 0px;
      }
    </style>
  </defs>
  <g id="Layer_1-2" data-name="Layer 1">
    <g>
      <path class="cls-1" d="M525.96,187.19v-14.39h21.65v-43.16h10.7v-7.28h10.95v-14.39h10.7v-28.77h-10.7v-14.39h-10.95v-7.28h-10.7V14.39h-21.65V0h43.3v50.44h10.7v14.39h10.95v14.39h10.7v7.28h10.95v14.39h-10.95v7.11h-10.7v14.55h-10.95v14.39h-10.7v50.27h-43.3Z"/>
      <path class="cls-1" d="M86.6,0v14.39h-21.65v43.16h-10.7v7.28h-10.95v14.39h-10.7v28.77h10.7v14.39h10.95v7.28h10.7v43.16h21.65v14.39h-43.3v-50.44h-10.7v-14.39h-10.95v-14.39h-10.7v-7.28H0v-14.39h10.95v-7.11h10.7v-14.55h10.95v-14.39h10.7V0h43.3Z"/>
      <g>
        <path class="cls-1" d="M200.47,162.82h-15.73v-64.77h28.59c7.59,0,13.66,2.13,18.23,6.38,4.56,4.26,6.85,9.68,6.85,16.28s-2.28,11.95-6.85,16.05c-4.57,4.1-10.64,6.15-18.23,6.15h-12.86v19.89ZM200.47,111.93v17.12h12.86c2.65,0,4.78-.8,6.38-2.41s2.41-3.64,2.41-6.11-.8-4.59-2.41-6.2c-1.6-1.6-3.73-2.41-6.38-2.41h-12.86Z"/>
        <path class="cls-1" d="M245.77,123.02l7.81-24.97h27.94l20.26,64.77h-16.75l-3.79-12.77h-28.31l-3.79,12.77h-15.82l12.45-39.79M267.09,102.68l-9.99,33.49h19.99l-9.99-33.49Z"/>
        <path class="cls-1" d="M345.92,139.59l15.08,23.22h-18.69l-13.79-21.28h-6.38v21.28h-15.73v-64.77h28.68c7.28,0,13.11,2.04,17.49,6.11,4.38,4.07,6.57,9.28,6.57,15.64,0,4.5-1.16,8.5-3.47,11.98-2.31,3.49-5.57,6.09-9.76,7.82ZM335.1,111.93h-12.95v15.27h12.95c2.34,0,4.22-.71,5.64-2.13,1.42-1.42,2.13-3.24,2.13-5.46s-.71-4.05-2.13-5.51c-1.42-1.45-3.3-2.17-5.64-2.17Z"/>
        <path class="cls-1" d="M383.21,162.82h-15.73v-64.77h15.73v64.77Z"/>
        <path class="cls-1" d="M391.53,145.52l15.91-3.24c1.11,5.31,4.63,7.96,10.55,7.96,2.59,0,4.7-.59,6.34-1.76,1.63-1.17,2.45-2.59,2.45-4.26,0-1.36-.62-2.5-1.85-3.42-1.23-.93-2.85-1.67-4.86-2.22-2.01-.56-4.21-1.12-6.62-1.71-2.41-.59-4.81-1.34-7.22-2.27-2.41-.93-4.61-2.07-6.62-3.42-2.01-1.36-3.62-3.24-4.86-5.64-1.23-2.41-1.85-5.24-1.85-8.51,0-5.67,2.37-10.41,7.12-14.2,4.75-3.79,10.58-5.69,17.49-5.69s12.69,1.67,17.16,5c4.47,3.33,7.11,7.74,7.91,13.23l-15.91,3.24c-.49-2.47-1.57-4.41-3.24-5.83-1.67-1.42-3.82-2.13-6.48-2.13-2.34,0-4.23.51-5.64,1.53-1.42,1.02-2.13,2.33-2.13,3.93,0,1.48.83,2.71,2.5,3.7,1.67.99,3.76,1.73,6.29,2.22,2.53.49,5.24,1.23,8.14,2.22,2.9.99,5.61,2.13,8.14,3.42,2.53,1.3,4.63,3.33,6.29,6.11,1.67,2.78,2.5,6.11,2.5,9.99,0,5.68-2.45,10.43-7.36,14.25-4.9,3.82-10.96,5.74-18.18,5.74s-13.06-1.67-17.72-5c-4.66-3.33-7.42-7.74-8.28-13.23Z"/>
      </g>
      <g>
        <path class="cls-1" d="M184.11,19.89l-20.26,64.77h15.82l3.79-12.77h28.31l3.79,12.77h16.75l-20.26-64.77h-27.94ZM187.63,58.01l9.99-33.49,9.99,33.49h-19.99Z"/>
        <path class="cls-1" d="M264.7,33.4c3.58,0,6.77.93,9.58,2.78,2.81,1.85,4.92,4.23,6.34,7.12l14.62-5.55c-2.41-5.24-6.29-9.68-11.66-13.32-5.37-3.64-11.66-5.46-18.87-5.46-9.68,0-17.81,3.21-24.38,9.62-6.57,6.42-9.85,14.31-9.85,23.69s3.28,17.27,9.85,23.69c6.57,6.42,14.7,9.62,24.38,9.62,7.22,0,13.51-1.82,18.87-5.46,5.37-3.64,9.25-8.08,11.66-13.32l-14.62-5.55c-1.42,2.9-3.53,5.27-6.34,7.12-2.81,1.85-6,2.78-9.58,2.78-5.06,0-9.31-1.82-12.77-5.46-3.46-3.64-5.18-8.11-5.18-13.42s1.73-9.78,5.18-13.42c3.45-3.64,7.71-5.46,12.77-5.46Z"/>
        <polygon class="cls-1" points="359.07 19.89 339.55 19.89 318.36 44.96 318.36 19.89 302.63 19.89 302.63 84.65 318.36 84.65 318.36 67.17 325.86 58.47 342.97 84.65 361.85 84.65 336.5 46.16 359.07 19.89"/>
        <rect class="cls-1" x="366.47" y="19.89" width="15.73" height="64.77"/>
        <polygon class="cls-1" points="434.94 79.93 421.89 19.89 391.45 19.89 391.45 84.65 407.18 84.65 407.18 24.61 420.23 84.65 450.67 84.65 450.67 19.89 434.94 19.89 434.94 79.93"/>
        <path class="cls-1" d="M525.71,47.64h-38.86v13.88h21.19c-.99,2.65-2.87,4.92-5.64,6.8-2.78,1.88-6.14,2.82-10.08,2.82-5.06,0-9.31-1.82-12.77-5.46-3.46-3.64-5.18-8.11-5.18-13.42s1.73-9.78,5.18-13.42c3.45-3.64,7.71-5.46,12.77-5.46,3.58,0,6.77.93,9.58,2.78,2.81,1.85,4.92,4.23,6.34,7.12l14.62-5.55c-2.41-5.24-6.29-9.68-11.66-13.32-5.37-3.64-11.66-5.46-18.87-5.46-9.68,0-17.81,3.21-24.38,9.62-6.57,6.42-9.85,14.31-9.85,23.69s3.28,17.27,9.85,23.69c6.57,6.42,14.7,9.62,24.38,9.62,4.69,0,9.16-.9,13.42-2.68,4.26-1.79,7.99-4.27,11.2-7.45,3.21-3.18,5.63-7.19,7.26-12.03,1.63-4.84,2.14-10.1,1.53-15.78Z"/>
        <g>
          <polygon class="cls-1" points="117.59 45.33 117.59 19.89 101.86 19.89 101.86 84.65 117.59 84.65 117.59 59.21 130.68 59.21 130.68 52.27 117.59 52.27 117.59 45.33"/>
          <polygon class="cls-1" points="143.49 19.89 143.49 45.33 130.68 45.33 130.68 52.27 143.49 52.27 143.49 59.21 143.49 84.65 159.22 84.65 159.22 19.89 143.49 19.89"/>
        </g>
      </g>
      <g>
        <path class="cls-1" d="M135.6,214.27c-2.49-2.44-3.73-5.44-3.73-9.01s1.24-6.57,3.73-9.01c2.49-2.44,5.56-3.66,9.22-3.66,2.7,0,5.07.69,7.11,2.08,2.04,1.38,3.51,3.07,4.4,5.07l-4.64,1.79c-.61-1.27-1.52-2.3-2.73-3.11-1.21-.81-2.58-1.21-4.13-1.21-2.18,0-4.02.77-5.51,2.32s-2.23,3.46-2.23,5.73.75,4.19,2.23,5.73c1.49,1.55,3.32,2.32,5.51,2.32,1.55,0,2.92-.4,4.13-1.21,1.21-.81,2.12-1.85,2.73-3.11l4.64,1.79c-.89,1.99-2.36,3.68-4.4,5.07-2.04,1.38-4.41,2.08-7.11,2.08-3.66,0-6.73-1.22-9.22-3.66Z"/>
        <path class="cls-1" d="M164.45,217.58h-5.03v-24.62h5.03v10.1h11.4v-10.1h5.03v24.62h-5.03v-10.1h-11.4v10.1Z"/>
        <path class="cls-1" d="M189.7,217.58h-5.03v-24.62h5.03v24.62Z"/>
        <path class="cls-1" d="M209.9,217.58h-16.39v-24.62h5.03v20.16h11.36v4.47Z"/>
        <path class="cls-1" d="M217.53,217.58h-5.03v-24.62h5.03v24.62Z"/>
        <path class="cls-1" d="M221.19,192.95h17.94v8.9l-16.36,11.26h16.36v4.47h-17.94v-8.9l16.36-11.26h-16.36v-4.47Z"/>
        <path class="cls-1" d="M278.53,216.24l3.8-23.29h5.07l-4.04,24.62h-9.67l-3.59-23.04-3.62,23.04h-9.5l-4.04-24.62h5.03l3.83,23.22,3.66-23.22h9.43l3.66,23.29Z"/>
        <path class="cls-1" d="M292.18,214.27c-2.49-2.44-3.73-5.44-3.73-9.01s1.24-6.57,3.73-9.01c2.49-2.44,5.56-3.66,9.22-3.66s6.73,1.22,9.22,3.66c2.49,2.44,3.73,5.44,3.73,9.01s-1.24,6.57-3.73,9.01c-2.49,2.44-5.56,3.66-9.22,3.66s-6.73-1.22-9.22-3.66ZM295.89,199.53c-1.49,1.55-2.23,3.46-2.23,5.73s.74,4.19,2.23,5.73c1.49,1.55,3.33,2.32,5.51,2.32s4.05-.77,5.52-2.32c1.48-1.55,2.22-3.46,2.22-5.73s-.74-4.19-2.22-5.73-3.32-2.32-5.52-2.32-4.02.77-5.51,2.32Z"/>
        <path class="cls-1" d="M331.26,208.33l6.12,9.25h-5.98l-5.77-8.76h-3.17v8.76h-5.03v-24.62h10.59c2.6,0,4.7.75,6.3,2.23,1.59,1.49,2.39,3.38,2.39,5.68,0,1.76-.49,3.31-1.46,4.64-.97,1.34-2.3,2.27-3.99,2.81ZM328.03,197.42h-5.56v6.79h5.56c1.06,0,1.91-.32,2.55-.95.64-.63.97-1.44.97-2.43s-.32-1.8-.97-2.45c-.65-.64-1.5-.97-2.55-.97Z"/>
        <path class="cls-1" d="M356.52,217.58h-16.39v-24.62h5.03v20.16h11.36v4.47Z"/>
        <path class="cls-1" d="M368.9,217.58h-9.78v-24.62h9.78c3.61,0,6.61,1.18,9.01,3.54,2.39,2.36,3.59,5.28,3.59,8.78s-1.2,6.42-3.59,8.78c-2.39,2.36-5.39,3.54-9.01,3.54ZM364.15,197.42v15.69h4.33c2.3,0,4.17-.74,5.63-2.22,1.45-1.48,2.18-3.35,2.18-5.63s-.73-4.18-2.18-5.65-3.33-2.2-5.63-2.2h-4.33Z"/>
        <path class="cls-1" d="M406.16,217.58h-5.03v-20.16h-7.53v-4.47h20.12v4.47h-7.56v20.16Z"/>
        <path class="cls-1" d="M417.77,214.27c-2.49-2.44-3.73-5.44-3.73-9.01s1.24-6.57,3.73-9.01c2.49-2.44,5.56-3.66,9.22-3.66s6.73,1.22,9.22,3.66c2.49,2.44,3.73,5.44,3.73,9.01s-1.24,6.57-3.73,9.01c-2.49,2.44-5.56,3.66-9.22,3.66s-6.73-1.22-9.22-3.66ZM421.48,199.53c-1.49,1.55-2.23,3.46-2.23,5.73s.74,4.19,2.23,5.73c1.49,1.55,3.33,2.32,5.51,2.32s4.05-.77,5.52-2.32c1.48-1.55,2.22-3.46,2.22-5.73s-.74-4.19-2.22-5.73-3.32-2.32-5.52-2.32-4.02.77-5.51,2.32Z"/>
        <path class="cls-1" d="M442.67,207.9v-14.95h5.03v14.95c0,1.6.52,2.9,1.55,3.91,1.03,1.01,2.39,1.51,4.08,1.51s3.08-.5,4.1-1.51c1.02-1.01,1.53-2.31,1.53-3.91v-14.95h5.03v14.95c0,2.93-1,5.34-2.99,7.21-1.99,1.88-4.55,2.81-7.67,2.81s-5.68-.94-7.67-2.81c-1.99-1.88-2.99-4.28-2.99-7.21Z"/>
        <path class="cls-1" d="M481.26,208.33l6.12,9.25h-5.98l-5.77-8.76h-3.17v8.76h-5.03v-24.62h10.59c2.6,0,4.7.75,6.3,2.23,1.59,1.49,2.39,3.38,2.39,5.68,0,1.76-.49,3.31-1.46,4.64-.97,1.34-2.3,2.27-3.99,2.81ZM478.03,197.42h-5.56v6.79h5.56c1.06,0,1.91-.32,2.55-.95.64-.63.97-1.44.97-2.43s-.32-1.8-.97-2.45c-.65-.64-1.5-.97-2.55-.97Z"/>
      </g>
    </g>
  </g>
</svg>